<mxfile modified="2024-04-26T11:25:47.064Z" host="app.diagrams.net" agent="Mozilla/5.0 (Windows NT 10.0; Win64; x64) AppleWebKit/537.36 (KHTML, like Gecko) Chrome/124.0.0.0 Safari/537.36" etag="NSUqTtSztL_vEaVk4k1R" version="24.3.0" type="github">
  <diagram id="Ht1M8jgEwFfnCIfOTk4-" name="Page-1">
    <mxGraphModel dx="1434" dy="780" grid="1" gridSize="10" guides="1" tooltips="1" connect="1" arrows="1" fold="1" page="1" pageScale="1" pageWidth="1169" pageHeight="827" math="0" shadow="0">
      <root>
        <mxCell id="0" />
        <mxCell id="1" parent="0" />
        <mxCell id="Va18C1TB2iV9SWrPP8mg-1" value="&lt;font style=&quot;font-size: 18px;&quot;&gt;ブラウザ&lt;/font&gt;" style="rounded=1;whiteSpace=wrap;html=1;" vertex="1" parent="1">
          <mxGeometry x="100" y="280" width="120" height="60" as="geometry" />
        </mxCell>
        <mxCell id="Va18C1TB2iV9SWrPP8mg-2" value="" style="endArrow=classic;html=1;rounded=0;exitX=1;exitY=0.5;exitDx=0;exitDy=0;" edge="1" parent="1" source="Va18C1TB2iV9SWrPP8mg-1" target="Va18C1TB2iV9SWrPP8mg-3">
          <mxGeometry width="50" height="50" relative="1" as="geometry">
            <mxPoint x="560" y="510" as="sourcePoint" />
            <mxPoint x="330" y="310" as="targetPoint" />
          </mxGeometry>
        </mxCell>
        <mxCell id="Va18C1TB2iV9SWrPP8mg-5" value="" style="edgeStyle=orthogonalEdgeStyle;rounded=0;orthogonalLoop=1;jettySize=auto;html=1;" edge="1" parent="1" source="Va18C1TB2iV9SWrPP8mg-3" target="Va18C1TB2iV9SWrPP8mg-4">
          <mxGeometry relative="1" as="geometry" />
        </mxCell>
        <mxCell id="Va18C1TB2iV9SWrPP8mg-7" value="" style="edgeStyle=orthogonalEdgeStyle;rounded=0;orthogonalLoop=1;jettySize=auto;html=1;" edge="1" parent="1" source="Va18C1TB2iV9SWrPP8mg-3" target="Va18C1TB2iV9SWrPP8mg-6">
          <mxGeometry relative="1" as="geometry" />
        </mxCell>
        <mxCell id="Va18C1TB2iV9SWrPP8mg-12" value="" style="edgeStyle=orthogonalEdgeStyle;rounded=0;orthogonalLoop=1;jettySize=auto;html=1;" edge="1" parent="1" source="Va18C1TB2iV9SWrPP8mg-3" target="Va18C1TB2iV9SWrPP8mg-11">
          <mxGeometry relative="1" as="geometry" />
        </mxCell>
        <mxCell id="Va18C1TB2iV9SWrPP8mg-3" value="&lt;font style=&quot;font-size: 19px;&quot;&gt;Laravel&lt;/font&gt;" style="rounded=1;whiteSpace=wrap;html=1;" vertex="1" parent="1">
          <mxGeometry x="310" y="280" width="120" height="60" as="geometry" />
        </mxCell>
        <mxCell id="Va18C1TB2iV9SWrPP8mg-9" value="" style="edgeStyle=orthogonalEdgeStyle;rounded=0;orthogonalLoop=1;jettySize=auto;html=1;" edge="1" parent="1" source="Va18C1TB2iV9SWrPP8mg-4" target="Va18C1TB2iV9SWrPP8mg-3">
          <mxGeometry relative="1" as="geometry" />
        </mxCell>
        <mxCell id="Va18C1TB2iV9SWrPP8mg-4" value="&lt;font style=&quot;font-size: 18px;&quot;&gt;MySQL&lt;/font&gt;" style="whiteSpace=wrap;html=1;rounded=1;" vertex="1" parent="1">
          <mxGeometry x="510" y="280" width="120" height="60" as="geometry" />
        </mxCell>
        <mxCell id="Va18C1TB2iV9SWrPP8mg-10" value="" style="edgeStyle=orthogonalEdgeStyle;rounded=0;orthogonalLoop=1;jettySize=auto;html=1;" edge="1" parent="1" source="Va18C1TB2iV9SWrPP8mg-6" target="Va18C1TB2iV9SWrPP8mg-3">
          <mxGeometry relative="1" as="geometry" />
        </mxCell>
        <mxCell id="Va18C1TB2iV9SWrPP8mg-6" value="&lt;font style=&quot;font-size: 17px;&quot;&gt;ChatGPT API&lt;/font&gt;" style="whiteSpace=wrap;html=1;rounded=1;" vertex="1" parent="1">
          <mxGeometry x="310" y="420" width="120" height="60" as="geometry" />
        </mxCell>
        <mxCell id="Va18C1TB2iV9SWrPP8mg-13" value="" style="edgeStyle=orthogonalEdgeStyle;rounded=0;orthogonalLoop=1;jettySize=auto;html=1;" edge="1" parent="1" source="Va18C1TB2iV9SWrPP8mg-11" target="Va18C1TB2iV9SWrPP8mg-3">
          <mxGeometry relative="1" as="geometry" />
        </mxCell>
        <mxCell id="Va18C1TB2iV9SWrPP8mg-11" value="&lt;font style=&quot;font-size: 18px;&quot;&gt;Spotify API&lt;/font&gt;" style="whiteSpace=wrap;html=1;rounded=1;" vertex="1" parent="1">
          <mxGeometry x="310" y="140" width="120" height="60" as="geometry" />
        </mxCell>
      </root>
    </mxGraphModel>
  </diagram>
</mxfile>
